<svg xmlns="http://www.w3.org/2000/svg" xmlns:xlink="http://www.w3.org/1999/xlink" width="1080" zoomAndPan="magnify" viewBox="0 0 810 809.999993" height="1080" preserveAspectRatio="xMidYMid meet" version="1.0"><defs><clipPath id="7ee0693d24"><path d="M 15.300781 84 L 794.550781 84 L 794.550781 690.75 L 15.300781 690.75 Z M 15.300781 84 " clip-rule="nonzero"/></clipPath></defs><path fill="#100f0d" d="M 387.449219 488.269531 C 381.273438 488.574219 370.90625 499.335938 371.121094 505.386719 C 371.351562 511.761719 375.238281 514.820312 381.183594 514.875 C 387.449219 515 397.550781 503.9375 397.425781 497.722656 C 397.371094 491.867188 393.304688 488.054688 387.449219 488.269531 " fill-opacity="1" fill-rule="nonzero"/><path fill="#100f0d" d="M 324.191406 373.121094 C 292.640625 373.296875 267.054688 399.207031 267.234375 430.882812 C 267.394531 460.355469 290.761719 485.511719 317.796875 485.296875 C 348.808594 485.027344 379.484375 454.015625 379.304688 423.003906 C 379.179688 396.054688 353.679688 372.90625 324.191406 373.121094 " fill-opacity="1" fill-rule="nonzero"/><path fill="#100f0d" d="M 422.222656 488.359375 C 415.972656 488.234375 412.554688 491.5625 412.375 497.8125 C 412.160156 503.9375 422.492188 515.054688 428.703125 514.875 C 434.683594 514.785156 438.320312 511.597656 438.679688 506.300781 C 438.804688 499.207031 428.488281 488.449219 422.222656 488.359375 " fill-opacity="1" fill-rule="nonzero"/><path fill="#100f0d" d="M 540.5625 416.003906 C 534.492188 391.023438 511.394531 373.261719 485.214844 373.261719 C 459.324219 373.296875 436.011719 390.453125 431.5 414.730469 C 426.734375 440.28125 439.5 458.921875 458.839844 473.53125 C 475.296875 485.957031 493.882812 490.058594 513.003906 480.085938 C 532.683594 469.863281 541.402344 452.226562 542.53125 430.558594 C 542.53125 430.558594 542.710938 425.3125 541.472656 419.546875 C 541.167969 418.3125 540.867188 417.128906 540.5625 416.003906 " fill-opacity="1" fill-rule="nonzero"/><g clip-path="url(#7ee0693d24)"><path fill="#100f0d" d="M 531.464844 552.710938 C 526.21875 556.738281 522.925781 560.765625 522.316406 567.804688 C 521.007812 584.082031 518.429688 600.265625 516.800781 616.542969 C 515.941406 625.996094 512.304688 630.617188 501.9375 629.972656 C 489.511719 629.183594 476.996094 629.273438 464.570312 629.972656 C 462.832031 630.097656 461.292969 630.097656 459.984375 629.9375 L 459.984375 573.230469 C 459.984375 565.082031 453.378906 558.527344 445.285156 558.527344 C 437.050781 558.527344 430.496094 565.082031 430.496094 573.230469 L 430.496094 629.667969 C 429.527344 629.9375 428.488281 629.972656 427.164062 629.9375 C 412.070312 629.632812 397.03125 629.632812 381.933594 629.9375 C 380.878906 629.972656 380.089844 629.847656 379.304688 629.667969 L 379.304688 573.230469 C 379.304688 565.082031 372.75 558.527344 364.601562 558.527344 C 356.472656 558.527344 349.8125 565.082031 349.8125 573.230469 L 349.8125 629.972656 L 348.417969 629.972656 C 335.039062 629.453125 321.558594 629.847656 308.128906 629.792969 C 296.058594 629.792969 294.339844 628.054688 292.910156 615.789062 C 291.117188 599.925781 288.878906 584.082031 287.484375 568.109375 C 286.875 561.25 283.9375 557.007812 278.550781 552.925781 C 212.675781 503.757812 195.644531 421.730469 240.5 356.378906 C 241.503906 354.890625 242.324219 353.351562 242.898438 351.902344 C 257.296875 328.070312 300.824219 302.699219 300.824219 302.699219 C 314.378906 294.730469 328.898438 288.964844 344.046875 284.882812 C 359.265625 280.78125 374.578125 276.933594 391.066406 277.753906 C 402.152344 275.300781 417.316406 276.574219 417.316406 276.574219 C 473.808594 280.78125 523.066406 300.511719 560.257812 344.46875 C 588.871094 378.292969 600.1875 417.667969 591.574219 461.5 C 584.054688 499.816406 562.226562 529.488281 531.464844 552.710938 Z M 763.644531 660.5 C 721.746094 638.226562 679.402344 616.757812 637.25 594.914062 C 636.195312 594.429688 635.046875 594.054688 633.203125 593.320312 C 624.464844 621.894531 603.535156 638.476562 579.488281 651.746094 C 576.675781 653.355469 571.84375 651.332031 567.972656 650.957031 C 568.832031 646.929688 568.53125 641.84375 570.929688 639.085938 C 574.347656 635.234375 579.667969 632.980469 584.25 630.152344 C 600.902344 619.871094 613.4375 606.230469 618.824219 587.089844 C 632.648438 538.207031 646.488281 489.308594 660.0625 440.425781 C 664.96875 422.804688 663.929688 405.242188 654.921875 389.394531 C 618.46875 324.898438 582.726562 259.941406 544.125 196.734375 C 514.507812 148.136719 480.863281 102.140625 420.648438 87.082031 C 408.972656 81.207031 388.292969 87.082031 388.292969 87.082031 C 371.335938 94.921875 353.160156 100.851562 337.746094 111.003906 C 313.824219 126.671875 296.5625 149.605469 280.484375 173.042969 C 232.945312 242.429688 195.554688 317.628906 154.625 390.808594 C 146.65625 405.0625 144.703125 421.265625 148.984375 437.003906 C 163.128906 488.574219 177.613281 539.980469 192.746094 591.3125 C 196.898438 605.566406 207.125 616.273438 219.226562 624.832031 C 225.046875 628.933594 230.972656 632.730469 236.972656 636.523438 C 242.109375 639.695312 245.726562 643.792969 241.933594 649.683594 C 237.886719 656.042969 232.945312 652.800781 228.039062 649.863281 C 205.101562 636.09375 184.777344 620 176.46875 592.40625 C 172.601562 594.230469 169.914062 595.46875 167.285156 596.8125 C 129.234375 616.382812 91.542969 636.648438 53.117188 655.359375 C 35.605469 663.9375 23.375 675.738281 15.300781 690.492188 L 794.550781 690.492188 C 787.640625 678.117188 777.539062 667.839844 763.644531 660.5 " fill-opacity="1" fill-rule="nonzero"/></g></svg>