<svg xmlns="http://www.w3.org/2000/svg" xmlns:xlink="http://www.w3.org/1999/xlink" width="1080" zoomAndPan="magnify" viewBox="0 0 810 809.999993" height="1080" preserveAspectRatio="xMidYMid meet" version="1.0"><defs><clipPath id="7a583dbf5c"><path d="M 181.515625 182 L 628 182 L 628 628 L 181.515625 628 Z M 181.515625 182 " clip-rule="nonzero"/></clipPath></defs><path fill="#040606" d="M 274.214844 453.398438 C 254.289062 444.375 243.933594 420.359375 249.792969 397.535156 L 329.992188 433.964844 C 317.695312 454.238281 294.257812 462.417969 274.214844 453.398438 Z M 342.726562 441.5625 C 344.902344 438.054688 345.453125 433.703125 344.234375 429.671875 C 343.015625 425.550781 340.085938 422.128906 336.171875 420.300781 L 255.828125 383.960938 C 251.910156 382.246094 247.472656 382.335938 243.617188 384.191406 C 239.757812 386.046875 236.917969 389.46875 235.84375 393.589844 C 227.722656 423.40625 241.585938 454.933594 268.125 466.941406 C 275.40625 470.21875 283.0625 471.757812 290.71875 471.757812 C 311.023438 471.757812 331.152344 460.765625 342.726562 441.5625 " fill-opacity="1" fill-rule="nonzero"/><g clip-path="url(#7a583dbf5c)"><path fill="#040606" d="M 610.152344 605.152344 C 607.425781 610.023438 602.464844 612.921875 596.894531 612.921875 L 345.308594 612.921875 C 339.738281 612.921875 334.777344 610.023438 332.050781 605.152344 C 329.265625 600.21875 329.355469 594.390625 332.3125 589.546875 L 458.105469 382.652344 C 460.890625 378.042969 465.765625 375.316406 471.101562 375.316406 C 476.4375 375.316406 481.3125 378.042969 484.09375 382.652344 L 609.890625 589.546875 C 612.847656 594.390625 612.933594 600.21875 610.152344 605.152344 Z M 359.402344 516.394531 L 340.117188 516.394531 C 337.707031 516.394531 335.621094 515.265625 334.460938 513.378906 C 333.9375 512.480469 333.210938 510.652344 334.371094 508.507812 L 348.816406 481.183594 C 350.0625 478.863281 354.558594 478.921875 355.75 481.097656 L 367.4375 503.167969 Z M 397.515625 453.714844 C 388.117188 449.886719 380.085938 442.984375 374.515625 433.847656 L 422.894531 411.976562 Z M 281.875 552.417969 C 279.582031 551.578125 278.046875 549.402344 278.046875 546.996094 L 278.046875 531.914062 C 278.046875 518.078125 266.703125 506.824219 252.8125 506.824219 C 241.09375 506.824219 230.042969 502.964844 222.472656 496.238281 C 194.191406 470.972656 214.464844 436.601562 215.308594 435.183594 C 216.699219 432.917969 216.785156 430.046875 215.480469 427.726562 C 202.980469 404.929688 196.367188 379.085938 196.367188 352.894531 C 196.367188 266.984375 266.328125 197.109375 352.296875 197.109375 C 438.269531 197.109375 508.226562 266.984375 508.226562 352.894531 C 508.226562 364.527344 506.835938 376.011719 504.28125 387.238281 L 496.800781 374.9375 C 491.289062 365.859375 481.660156 360.464844 471.101562 360.464844 C 460.542969 360.464844 450.914062 365.859375 445.402344 374.9375 L 436.554688 389.5 L 368.25 420.390625 C 364.421875 422.214844 361.519531 425.640625 360.332031 429.785156 C 359.144531 433.820312 359.722656 438.109375 361.839844 441.535156 C 368.628906 452.730469 378.34375 461.34375 389.714844 466.507812 L 376.402344 488.40625 L 368.859375 474.105469 C 365.609375 468.132812 359.289062 464.417969 352.296875 464.417969 C 345.308594 464.417969 338.984375 468.132812 335.707031 474.164062 L 321.261719 501.515625 C 317.925781 507.722656 318.128906 515.003906 321.726562 521.007812 C 325.582031 527.417969 332.457031 531.246094 340.117188 531.246094 L 350.382812 531.246094 L 332.632812 560.394531 C 302.554688 558.773438 286.136719 553.898438 281.875 552.417969 Z M 514.898438 404.699219 C 520.234375 387.960938 523.078125 370.558594 523.078125 352.894531 C 523.078125 258.804688 446.476562 182.257812 352.296875 182.257812 C 258.117188 182.257812 181.515625 258.804688 181.515625 352.894531 C 181.515625 380.1875 188.070312 407.164062 200.542969 431.238281 C 191.640625 448.667969 184.679688 482.371094 212.609375 507.316406 C 223.023438 516.570312 237.292969 521.675781 252.8125 521.675781 C 258.523438 521.675781 263.195312 526.257812 263.195312 531.914062 L 263.195312 546.996094 C 263.195312 555.609375 268.648438 563.382812 276.882812 566.398438 C 281.351562 567.964844 296.722656 572.636719 323.902344 574.753906 L 319.609375 581.832031 C 313.867188 591.316406 313.664062 602.742188 319.085938 612.429688 C 324.511719 622.03125 334.3125 627.773438 345.308594 627.773438 L 596.894531 627.773438 C 607.886719 627.773438 617.691406 622.03125 623.117188 612.429688 C 628.539062 602.742188 628.335938 591.316406 622.59375 581.832031 L 514.898438 404.699219 " fill-opacity="1" fill-rule="nonzero"/></g><path fill="#040606" d="M 478.527344 516.394531 C 478.527344 520.484375 475.191406 523.820312 471.101562 523.820312 C 467.011719 523.820312 463.675781 520.484375 463.675781 516.394531 L 463.675781 434.71875 C 463.675781 430.628906 467.011719 427.292969 471.101562 427.292969 C 475.191406 427.292969 478.527344 430.628906 478.527344 434.71875 Z M 471.101562 412.441406 C 458.804688 412.441406 448.824219 422.417969 448.824219 434.71875 L 448.824219 516.394531 C 448.824219 528.695312 458.804688 538.671875 471.101562 538.671875 C 483.398438 538.671875 493.378906 528.695312 493.378906 516.394531 L 493.378906 434.71875 C 493.378906 422.417969 483.398438 412.441406 471.101562 412.441406 " fill-opacity="1" fill-rule="nonzero"/><path fill="#040606" d="M 471.101562 583.222656 C 467.011719 583.222656 463.675781 579.886719 463.675781 575.796875 C 463.675781 571.707031 467.011719 568.371094 471.101562 568.371094 C 475.191406 568.371094 478.527344 571.707031 478.527344 575.796875 C 478.527344 579.886719 475.191406 583.222656 471.101562 583.222656 Z M 471.101562 553.523438 C 458.804688 553.523438 448.824219 563.5 448.824219 575.796875 C 448.824219 588.09375 458.804688 598.074219 471.101562 598.074219 C 483.398438 598.074219 493.378906 588.09375 493.378906 575.796875 C 493.378906 563.5 483.398438 553.523438 471.101562 553.523438 " fill-opacity="1" fill-rule="nonzero"/></svg>