<?xml version="1.0" ?><svg viewBox="0 0 512 512" xmlns="http://www.w3.org/2000/svg"><g id="Ghost"><path d="M258.8369,46.0255C175.4812,44.466,107.25,115.2543,107.25,198.6292V400.43a30.625,30.625,0,0,0,61.25-.0556V387.25a21.875,21.875,0,0,1,43.75,0V431a35,35,0,1,0,70,0V404.75a26.25,26.25,0,0,1,52.5,0,35,35,0,1,0,70,0v-210A148.7516,148.7516,0,0,0,258.8369,46.0255ZM194.75,120.3748a26.25,26.25,0,1,1-26.25,26.25A26.2472,26.2472,0,0,1,194.75,120.3748ZM343.5,292.69c-.03,6.1844-7.135,9.5575-12.1936,5.9964a130.6792,130.6792,0,0,0-150.6085,0c-5.0543,3.5611-12.1637.188-12.1936-5.9964,0-.1282-.0043-.2542-.0043-.3824a87.5,87.5,0,0,1,175,0ZM317.25,172.8748a26.25,26.25,0,1,1,26.25-26.25A26.2512,26.2512,0,0,1,317.25,172.8748Z"/></g></svg>